<mxfile host="app.diagrams.net" agent="Mozilla/5.0 (Windows NT 10.0; Win64; x64) AppleWebKit/537.36 (KHTML, like Gecko) Chrome/131.0.0.0 Safari/537.36" version="24.8.9">
  <diagram id="C5RBs43oDa-KdzZeNtuy" name="Page-1">
    <mxGraphModel dx="1050" dy="565" grid="1" gridSize="10" guides="1" tooltips="1" connect="1" arrows="1" fold="1" page="1" pageScale="1" pageWidth="827" pageHeight="1169" math="0" shadow="0">
      <root>
        <mxCell id="WIyWlLk6GJQsqaUBKTNV-0" />
        <mxCell id="WIyWlLk6GJQsqaUBKTNV-1" parent="WIyWlLk6GJQsqaUBKTNV-0" />
        <mxCell id="lDfHa0bOI5FKgW5QXDE5-58" value="" style="whiteSpace=wrap;html=1;aspect=fixed;" vertex="1" parent="WIyWlLk6GJQsqaUBKTNV-1">
          <mxGeometry x="79" y="360" width="670" height="670" as="geometry" />
        </mxCell>
        <mxCell id="lDfHa0bOI5FKgW5QXDE5-20" value="&lt;p style=&quot;margin:0px;margin-top:6px;text-align:center;&quot;&gt;&lt;/p&gt;&lt;p style=&quot;margin:0px;margin-left:8px;&quot;&gt;&lt;br&gt;&lt;font style=&quot;font-size: 18px;&quot;&gt;UI-компонент&lt;/font&gt;&lt;/p&gt;" style="align=left;overflow=fill;html=1;dropTarget=0;whiteSpace=wrap;" vertex="1" parent="WIyWlLk6GJQsqaUBKTNV-1">
          <mxGeometry x="270" y="110" width="180" height="90" as="geometry" />
        </mxCell>
        <mxCell id="lDfHa0bOI5FKgW5QXDE5-21" value="" style="shape=component;jettyWidth=8;jettyHeight=4;" vertex="1" parent="lDfHa0bOI5FKgW5QXDE5-20">
          <mxGeometry x="1" width="20" height="20" relative="1" as="geometry">
            <mxPoint x="-24" y="4" as="offset" />
          </mxGeometry>
        </mxCell>
        <mxCell id="lDfHa0bOI5FKgW5QXDE5-22" value="&lt;p style=&quot;margin:0px;margin-top:6px;text-align:center;&quot;&gt;&lt;/p&gt;&lt;p style=&quot;margin:0px;margin-left:8px;&quot;&gt;&lt;br&gt;&lt;font style=&quot;font-size: 18px;&quot;&gt;PaymentService&lt;/font&gt;&lt;/p&gt;" style="align=left;overflow=fill;html=1;dropTarget=0;whiteSpace=wrap;" vertex="1" parent="WIyWlLk6GJQsqaUBKTNV-1">
          <mxGeometry x="100" y="430" width="180" height="90" as="geometry" />
        </mxCell>
        <mxCell id="lDfHa0bOI5FKgW5QXDE5-23" value="" style="shape=component;jettyWidth=8;jettyHeight=4;" vertex="1" parent="lDfHa0bOI5FKgW5QXDE5-22">
          <mxGeometry x="1" width="20" height="20" relative="1" as="geometry">
            <mxPoint x="-24" y="4" as="offset" />
          </mxGeometry>
        </mxCell>
        <mxCell id="lDfHa0bOI5FKgW5QXDE5-24" value="&lt;p style=&quot;margin:0px;margin-top:6px;text-align:center;&quot;&gt;&lt;/p&gt;&lt;p style=&quot;margin:0px;margin-left:8px;&quot;&gt;&lt;br&gt;&lt;font style=&quot;font-size: 18px;&quot;&gt;BookingService&lt;/font&gt;&lt;/p&gt;" style="align=left;overflow=fill;html=1;dropTarget=0;whiteSpace=wrap;" vertex="1" parent="WIyWlLk6GJQsqaUBKTNV-1">
          <mxGeometry x="330" y="620" width="180" height="90" as="geometry" />
        </mxCell>
        <mxCell id="lDfHa0bOI5FKgW5QXDE5-25" value="" style="shape=component;jettyWidth=8;jettyHeight=4;" vertex="1" parent="lDfHa0bOI5FKgW5QXDE5-24">
          <mxGeometry x="1" width="20" height="20" relative="1" as="geometry">
            <mxPoint x="-24" y="4" as="offset" />
          </mxGeometry>
        </mxCell>
        <mxCell id="lDfHa0bOI5FKgW5QXDE5-26" value="&lt;p style=&quot;margin:0px;margin-top:6px;text-align:center;&quot;&gt;&lt;/p&gt;&lt;p style=&quot;margin:0px;margin-left:8px;&quot;&gt;&lt;br&gt;&lt;font style=&quot;font-size: 18px;&quot;&gt;HotelService&lt;/font&gt;&lt;/p&gt;" style="align=left;overflow=fill;html=1;dropTarget=0;whiteSpace=wrap;" vertex="1" parent="WIyWlLk6GJQsqaUBKTNV-1">
          <mxGeometry x="540" y="400" width="180" height="90" as="geometry" />
        </mxCell>
        <mxCell id="lDfHa0bOI5FKgW5QXDE5-27" value="" style="shape=component;jettyWidth=8;jettyHeight=4;" vertex="1" parent="lDfHa0bOI5FKgW5QXDE5-26">
          <mxGeometry x="1" width="20" height="20" relative="1" as="geometry">
            <mxPoint x="-24" y="4" as="offset" />
          </mxGeometry>
        </mxCell>
        <mxCell id="lDfHa0bOI5FKgW5QXDE5-30" value="&lt;p style=&quot;margin:0px;margin-top:6px;text-align:center;&quot;&gt;&lt;/p&gt;&lt;p style=&quot;margin:0px;margin-left:8px;&quot;&gt;&lt;br&gt;&lt;font style=&quot;font-size: 18px;&quot;&gt;NotificationService&lt;/font&gt;&lt;/p&gt;" style="align=left;overflow=fill;html=1;dropTarget=0;whiteSpace=wrap;" vertex="1" parent="WIyWlLk6GJQsqaUBKTNV-1">
          <mxGeometry x="560" y="800" width="180" height="90" as="geometry" />
        </mxCell>
        <mxCell id="lDfHa0bOI5FKgW5QXDE5-31" value="" style="shape=component;jettyWidth=8;jettyHeight=4;" vertex="1" parent="lDfHa0bOI5FKgW5QXDE5-30">
          <mxGeometry x="1" width="20" height="20" relative="1" as="geometry">
            <mxPoint x="-24" y="4" as="offset" />
          </mxGeometry>
        </mxCell>
        <mxCell id="lDfHa0bOI5FKgW5QXDE5-38" value="&lt;p style=&quot;margin:0px;margin-top:6px;text-align:center;&quot;&gt;&lt;/p&gt;&lt;p style=&quot;margin:0px;margin-left:8px;&quot;&gt;&lt;br&gt;&lt;font&gt;UserManagementService&lt;/font&gt;&lt;/p&gt;" style="align=left;overflow=fill;html=1;dropTarget=0;whiteSpace=wrap;" vertex="1" parent="WIyWlLk6GJQsqaUBKTNV-1">
          <mxGeometry x="180" y="840" width="180" height="90" as="geometry" />
        </mxCell>
        <mxCell id="lDfHa0bOI5FKgW5QXDE5-39" value="" style="shape=component;jettyWidth=8;jettyHeight=4;" vertex="1" parent="lDfHa0bOI5FKgW5QXDE5-38">
          <mxGeometry x="1" width="20" height="20" relative="1" as="geometry">
            <mxPoint x="-24" y="4" as="offset" />
          </mxGeometry>
        </mxCell>
        <mxCell id="lDfHa0bOI5FKgW5QXDE5-45" value="" style="rounded=0;orthogonalLoop=1;jettySize=auto;html=1;endArrow=halfCircle;endFill=0;endSize=6;strokeWidth=1;sketch=0;exitX=0.5;exitY=0;exitDx=0;exitDy=0;entryX=0.36;entryY=0.38;entryDx=0;entryDy=0;entryPerimeter=0;" edge="1" target="lDfHa0bOI5FKgW5QXDE5-47" parent="WIyWlLk6GJQsqaUBKTNV-1" source="lDfHa0bOI5FKgW5QXDE5-24">
          <mxGeometry relative="1" as="geometry">
            <mxPoint x="430" y="375" as="sourcePoint" />
            <mxPoint x="480" y="400" as="targetPoint" />
          </mxGeometry>
        </mxCell>
        <mxCell id="lDfHa0bOI5FKgW5QXDE5-46" value="" style="rounded=0;orthogonalLoop=1;jettySize=auto;html=1;endArrow=oval;endFill=0;sketch=0;sourcePerimeterSpacing=0;targetPerimeterSpacing=0;endSize=10;exitX=0.5;exitY=1;exitDx=0;exitDy=0;" edge="1" target="lDfHa0bOI5FKgW5QXDE5-47" parent="WIyWlLk6GJQsqaUBKTNV-1" source="lDfHa0bOI5FKgW5QXDE5-26">
          <mxGeometry relative="1" as="geometry">
            <mxPoint x="390" y="375" as="sourcePoint" />
          </mxGeometry>
        </mxCell>
        <mxCell id="lDfHa0bOI5FKgW5QXDE5-47" value="" style="ellipse;whiteSpace=wrap;html=1;align=center;aspect=fixed;fillColor=none;strokeColor=none;resizable=0;perimeter=centerPerimeter;rotatable=0;allowArrows=0;points=[];outlineConnect=1;" vertex="1" parent="WIyWlLk6GJQsqaUBKTNV-1">
          <mxGeometry x="530" y="550" width="10" height="10" as="geometry" />
        </mxCell>
        <mxCell id="lDfHa0bOI5FKgW5QXDE5-48" value="" style="rounded=0;orthogonalLoop=1;jettySize=auto;html=1;endArrow=halfCircle;endFill=0;endSize=6;strokeWidth=1;sketch=0;exitX=0.5;exitY=0;exitDx=0;exitDy=0;" edge="1" target="lDfHa0bOI5FKgW5QXDE5-50" parent="WIyWlLk6GJQsqaUBKTNV-1" source="lDfHa0bOI5FKgW5QXDE5-24">
          <mxGeometry relative="1" as="geometry">
            <mxPoint x="430" y="324" as="sourcePoint" />
          </mxGeometry>
        </mxCell>
        <mxCell id="lDfHa0bOI5FKgW5QXDE5-49" value="" style="rounded=0;orthogonalLoop=1;jettySize=auto;html=1;endArrow=oval;endFill=0;sketch=0;sourcePerimeterSpacing=0;targetPerimeterSpacing=0;endSize=10;exitX=1;exitY=0.5;exitDx=0;exitDy=0;" edge="1" target="lDfHa0bOI5FKgW5QXDE5-50" parent="WIyWlLk6GJQsqaUBKTNV-1" source="lDfHa0bOI5FKgW5QXDE5-22">
          <mxGeometry relative="1" as="geometry">
            <mxPoint x="390" y="375" as="sourcePoint" />
          </mxGeometry>
        </mxCell>
        <mxCell id="lDfHa0bOI5FKgW5QXDE5-50" value="" style="ellipse;whiteSpace=wrap;html=1;align=center;aspect=fixed;fillColor=none;strokeColor=none;resizable=0;perimeter=centerPerimeter;rotatable=0;allowArrows=0;points=[];outlineConnect=1;" vertex="1" parent="WIyWlLk6GJQsqaUBKTNV-1">
          <mxGeometry x="350" y="550" width="10" height="10" as="geometry" />
        </mxCell>
        <mxCell id="lDfHa0bOI5FKgW5QXDE5-52" value="" style="rounded=0;orthogonalLoop=1;jettySize=auto;html=1;endArrow=halfCircle;endFill=0;endSize=6;strokeWidth=1;sketch=0;exitX=0;exitY=0.5;exitDx=0;exitDy=0;" edge="1" parent="WIyWlLk6GJQsqaUBKTNV-1" source="lDfHa0bOI5FKgW5QXDE5-30">
          <mxGeometry relative="1" as="geometry">
            <mxPoint x="430" y="705" as="sourcePoint" />
            <mxPoint x="460" y="780" as="targetPoint" />
          </mxGeometry>
        </mxCell>
        <mxCell id="lDfHa0bOI5FKgW5QXDE5-53" value="" style="rounded=0;orthogonalLoop=1;jettySize=auto;html=1;endArrow=oval;endFill=0;sketch=0;sourcePerimeterSpacing=0;targetPerimeterSpacing=0;endSize=10;exitX=0.444;exitY=0.98;exitDx=0;exitDy=0;exitPerimeter=0;" edge="1" parent="WIyWlLk6GJQsqaUBKTNV-1" source="lDfHa0bOI5FKgW5QXDE5-24">
          <mxGeometry relative="1" as="geometry">
            <mxPoint x="410" y="750" as="sourcePoint" />
            <mxPoint x="460" y="780" as="targetPoint" />
          </mxGeometry>
        </mxCell>
        <mxCell id="lDfHa0bOI5FKgW5QXDE5-54" value="" style="ellipse;whiteSpace=wrap;html=1;align=center;aspect=fixed;fillColor=none;strokeColor=none;resizable=0;perimeter=centerPerimeter;rotatable=0;allowArrows=0;points=[];outlineConnect=1;" vertex="1" parent="WIyWlLk6GJQsqaUBKTNV-1">
          <mxGeometry x="185" y="700" width="10" height="10" as="geometry" />
        </mxCell>
        <mxCell id="lDfHa0bOI5FKgW5QXDE5-55" value="" style="rounded=0;orthogonalLoop=1;jettySize=auto;html=1;endArrow=halfCircle;endFill=0;endSize=6;strokeWidth=1;sketch=0;exitX=0;exitY=0.5;exitDx=0;exitDy=0;" edge="1" parent="WIyWlLk6GJQsqaUBKTNV-1" source="lDfHa0bOI5FKgW5QXDE5-30">
          <mxGeometry relative="1" as="geometry">
            <mxPoint x="430" y="705" as="sourcePoint" />
            <mxPoint x="450" y="860" as="targetPoint" />
          </mxGeometry>
        </mxCell>
        <mxCell id="lDfHa0bOI5FKgW5QXDE5-56" value="" style="rounded=0;orthogonalLoop=1;jettySize=auto;html=1;endArrow=oval;endFill=0;sketch=0;sourcePerimeterSpacing=0;targetPerimeterSpacing=0;endSize=10;exitX=1;exitY=0.5;exitDx=0;exitDy=0;" edge="1" parent="WIyWlLk6GJQsqaUBKTNV-1" source="lDfHa0bOI5FKgW5QXDE5-38">
          <mxGeometry relative="1" as="geometry">
            <mxPoint x="410" y="710" as="sourcePoint" />
            <mxPoint x="450" y="860" as="targetPoint" />
          </mxGeometry>
        </mxCell>
        <mxCell id="lDfHa0bOI5FKgW5QXDE5-59" value="" style="rounded=0;orthogonalLoop=1;jettySize=auto;html=1;endArrow=halfCircle;endFill=0;endSize=6;strokeWidth=1;sketch=0;exitX=0.436;exitY=0.003;exitDx=0;exitDy=0;exitPerimeter=0;" edge="1" parent="WIyWlLk6GJQsqaUBKTNV-1" source="lDfHa0bOI5FKgW5QXDE5-58">
          <mxGeometry relative="1" as="geometry">
            <mxPoint x="360" y="275" as="sourcePoint" />
            <mxPoint x="350" y="275" as="targetPoint" />
          </mxGeometry>
        </mxCell>
        <mxCell id="lDfHa0bOI5FKgW5QXDE5-60" value="" style="rounded=0;orthogonalLoop=1;jettySize=auto;html=1;endArrow=oval;endFill=0;sketch=0;sourcePerimeterSpacing=0;targetPerimeterSpacing=0;endSize=10;exitX=0.36;exitY=1.02;exitDx=0;exitDy=0;exitPerimeter=0;" edge="1" parent="WIyWlLk6GJQsqaUBKTNV-1" source="lDfHa0bOI5FKgW5QXDE5-20">
          <mxGeometry relative="1" as="geometry">
            <mxPoint x="320" y="275" as="sourcePoint" />
            <mxPoint x="350" y="275" as="targetPoint" />
          </mxGeometry>
        </mxCell>
        <mxCell id="lDfHa0bOI5FKgW5QXDE5-61" value="" style="ellipse;whiteSpace=wrap;html=1;align=center;aspect=fixed;fillColor=none;strokeColor=none;resizable=0;perimeter=centerPerimeter;rotatable=0;allowArrows=0;points=[];outlineConnect=1;" vertex="1" parent="WIyWlLk6GJQsqaUBKTNV-1">
          <mxGeometry x="335" y="270" width="10" height="10" as="geometry" />
        </mxCell>
      </root>
    </mxGraphModel>
  </diagram>
</mxfile>
